<svg id="Ebene_1" data-name="Ebene 1" xmlns="http://www.w3.org/2000/svg" viewBox="0 0 1063.98 168.92"><defs><style>.cls-1{fill:#037afb;}</style></defs><title>gamestart</title><path d="M236.52,264.79v67.8c0,24.27,5.09,27.45-18.86,28.47-8.3.35-18.73-2.07-25.56-2.07-17.91,0-35.91,5.35-55.3-.62-46-14.16-69.94-66.66-51.77-110.85C103.35,203,159.25,184.92,203,201.91c19.17,7.45,17.83,7.44,10.79,20.75-2.37,4.48-17,22.61-22.27,23.85-16.21,3.84-28.58-12.05-47.76,0C132,253.85,125,267.85,125.8,281.79c1.9,32.79,44.05,45.68,64.72,20.29-15.44,0-16.31,3.06-19.3-7.91-1.3-4.79,4.19-28.08,7.3-30.77C183.24,259.33,236.52,262.66,236.52,264.79Z" transform="translate(-78.93 -195.22)"/><path d="M331.21,232.41l18.06,56c4.3,13.34,25.47,53.11,21.45,66.55-2.75,9.2-31.43,8.67-41.47,4-2.84-1.31-.94-10.66-4.22-12.72-3.1-1.95-7.26.28-10.67-.72-11.45-3.35-19.17.62-25.88,4.55-3.11,1.82-.52,8.1-4.31,10.33-2.68,1.58-9-.5-12.23,0-5.15.8-25.46,2.59-28.22-2.79-3.9-7.58,15.49-48.07,18-55.81,5.17-16,9.76-55.78,21.8-67.64C287.51,230.31,329.42,226.85,331.21,232.41Zm-17.06,74.23c-.52-2.06-2.74-19.37-6.4-19.38-3.22,0-6.41,17.53-6.19,18C302.94,308,315.42,311.66,314.15,306.64Z" transform="translate(-78.93 -195.22)"/><path d="M504.4,233v55.53c0,14.36,7.69,55.68,0,67.87-3.86,6.13-36.51,8.62-42.39,2.11-6.38-7.06,8.07-51.14-1.32-54.38-7.27-2.5-13,23-23.1,20.25-4.54-1.25-11.83-22.3-17.33-20.43-8,2.72,3.19,45-1.33,51.65-3.75,5.54-33.52,10.79-40.44,4.87-6.27-5.37-2-29.28-2-36.66V252.69c0-18.24-3-16.68,11-21.64,23.29-8.23,29.9,3.53,43.22,16.61,19.77,19.42,11.67-3.37,30.62-14.42C465.62,230.79,504.4,228.57,504.4,233Z" transform="translate(-78.93 -195.22)"/><path d="M607.44,323.2c0,24.6,7.7,35.84-17.59,37.28-12.51.71-66.24,7.86-75.62,0-9.11-7.63-2-53.16-2-64.6,0-12.29-7.19-54.24,1-63.63,7.39-8.49,62.22-1,73.63-1,7,0,16.06-2.14,20.55,2.71,2.1,2.27,1.66,31.87,0,33.81-8.66,10.12-48.26-6.47-52.76,5.89-3,8.15,39.53,3.06,44.2,11.31,3.26,5.77.91,24.51-3.34,27.68-7.89,5.9-31.67-6.54-38.91,0C541.82,326.07,607.44,319.06,607.44,323.2Z" transform="translate(-78.93 -195.22)"/><path class="cls-1" d="M671,195.43c15.82-.59,40.45-.83,47.35,12.4,3.39,6.5.67,35.95-3.83,38.72-6,3.68-42.8-19.67-47.58-4.67-3.35,10.52,9.73,11,16.37,13.69,26.62,10.77,52,21.77,49.51,55.81-3.44,47.64-57.09,56.17-94.69,46.75-12.25-3.07-19.35-3.47-21.42-13.86-1-5,4.88-31.83,7.9-35.4,11.06-13.08,42.92,20.15,52.92,6,7.92-11.22-5.16-13.42-12.85-17.93C646.1,286,628.82,281.43,620,259,605.62,222.75,635.87,195.43,671,195.43Z" transform="translate(-78.93 -195.22)"/><path class="cls-1" d="M823,233c0,8.4,3.4,23.77,0,30.95-5.7,12-4.16,1.16-16.22,7.69-11.89,6.44-4.35-2.45-9.71,8.25-3.87,7.72,0,27.72,0,36.18,0,17.4,6,37.72-8,44.42-2.21,1.06-30.4,1.82-32.47,0-4.6-4.06-2-15.5-2-21,0-10.61,7-58.07,0-65.54-16.76-17.74-28.36,12.44-26.16-26,1.37-23.85,9.66-16.93,33.19-16.93C766.5,231.05,823,228.9,823,233Z" transform="translate(-78.93 -195.22)"/><path class="cls-1" d="M895.83,232.41l18.06,56c4.3,13.34,25.47,53.11,21.45,66.55-2.75,9.2-31.43,8.67-41.47,4-2.84-1.31-.94-10.66-4.22-12.72-3.1-1.95-7.26.28-10.67-.72-11.45-3.35-19.17.62-25.88,4.55-3.11,1.82-.52,8.1-4.31,10.33-2.68,1.57-9-.5-12.23,0-5.15.8-25.46,2.59-28.22-2.79-3.9-7.58,15.49-48.07,18-55.81,5.17-16,9.76-55.78,21.8-67.64C852.12,230.31,894,226.85,895.83,232.41Zm-17.06,74.23c-.52-2.06-2.74-19.37-6.4-19.38-3.22,0-6.41,17.53-6.19,18C867.55,308,880,311.66,878.77,306.64Z" transform="translate(-78.93 -195.22)"/><path class="cls-1" d="M1053.23,360.48c-10.35,0-30.32,4.19-39.52,0-1.47-.67-28.42-32.18-28.58-31.91-8.21,14.3,7,24.51-8.42,31.91-11.14,5.34-30.31,1.74-34.42-6.58-6.28-12.69,0-44.11,0-58.13,0-12.79-6.49-48.32,0-59.39,5.55-9.47,21.34-5.33,33.58-5.33,24.29,0,46.85,2.16,60.07,26.34,14.31,26.19-9.53,44-4.2,64.58C1032.77,326,1057.75,360.48,1053.23,360.48Zm-52.31-81.18c0-12.3-16.69-14.44-16.69,0C984.23,293.3,1000.92,291.95,1000.92,279.31Z" transform="translate(-78.93 -195.22)"/><path class="cls-1" d="M1141.39,233c0,8.4,3.4,23.77,0,30.95-5.7,12-4.16,1.16-16.22,7.69-11.89,6.44-4.35-2.45-9.71,8.25-3.87,7.72,0,27.72,0,36.18,0,17.4,6,37.72-8,44.42-2.21,1.06-30.4,1.82-32.47,0-4.6-4.06-2-15.5-2-21,0-10.61,7-58.07,0-65.54-16.76-17.74-28.36,12.44-26.16-26,1.37-23.85,9.66-16.93,33.19-16.93C1084.89,231.05,1141.39,228.9,1141.39,233Z" transform="translate(-78.93 -195.22)"/></svg>